<svg width="146" height="40" fill="none" xmlns="http://www.w3.org/2000/svg"><path d="M11.882 23.934v5.353c0 2.677-1.168 3.642-3.024 3.642s-3.023-.965-3.023-3.642V9.048c0-2.676 1.168-3.694 3.024-3.694s3.023 1.018 3.023 3.694v4.016H17.4v-3.64c0-5.998-2.971-9.424-8.7-9.424C2.97 0 0 3.426 0 9.423v19.49c0 5.997 2.97 9.424 8.7 9.424 5.728 0 8.699-3.428 8.699-9.424v-4.98h-5.517ZM33.896.428l5.941 37.48H33.95l-1.008-6.8h-7.16l-1.009 6.8h-5.357L25.356.428h8.54Zm-4.615 6.64-2.758 18.954h5.622L29.388 7.066h-.106v.001Zm31.403 30.84h-5.941c-.318-.964-.531-1.553-.531-4.605v-5.89c0-3.48-1.167-4.765-3.82-4.765h-2.015v15.26h-5.835V.428h8.806c6.047 0 8.645 2.838 8.645 8.621v2.945c0 3.854-1.22 6.318-3.819 7.55 2.919 1.337 3.873 4.121 3.873 8.03v5.783c0 1.82.053 3.159.636 4.551ZM51.189 5.782h-2.812v11.513h2.28c2.176 0 3.502-.963 3.502-3.962V9.638c0-2.677-.901-3.855-2.97-3.855ZM78.467.428l5.94 37.48H78.52l-1.007-6.8H70.35l-1.007 6.8h-5.358l5.94-37.48h8.542-.001Zm-4.615 6.64-2.758 18.954h5.623L73.958 7.066h-.106v.001ZM89.806.427h-5.888l5.728 37.48h8.7l5.728-37.48h-5.357L94.314 31h-.106L89.805.428Zm28.259 0 5.941 37.48h-5.888l-1.007-6.8h-7.162l-1.008 6.8h-5.357l5.941-37.48h8.54Zm-4.615 6.64-2.758 18.954h5.623l-2.758-18.956h-.107v.001Zm26.556 30.84H146V.428h-5.199v22.434h-.106L134.807.428h-7.32v37.48h5.252V10.761h.105l7.162 27.147Z" fill="#9C9C9C"/></svg>