<svg width="161" height="42" fill="none" xmlns="http://www.w3.org/2000/svg"><path fill-rule="evenodd" clip-rule="evenodd" d="M24.387 18.146h2.878c2.974 0 4.581 3.546 2.644 5.842l-2.818 3.339a7.989 7.989 0 0 0 2.88 5.013 7.759 7.759 0 0 0 5.467 1.695 7.798 7.798 0 0 0 5.148-2.524 8.03 8.03 0 0 0 2.092-5.403 2.656 2.656 0 0 1 .765-1.878 2.57 2.57 0 0 1 1.848-.776c.691 0 1.355.28 1.845.778a2.68 2.68 0 0 1 .767 1.876c0 2.785-.863 5.499-2.466 7.757a13.144 13.144 0 0 1-4.593 4.02 12.908 12.908 0 0 1-5.882 1.485c-2.048.02-4.072-.45-5.908-1.37a13.131 13.131 0 0 1-4.667-3.932 13.131 13.131 0 0 1-4.666 3.931c-1.837.921-3.861 1.39-5.909 1.37a12.907 12.907 0 0 1-5.882-1.483 13.143 13.143 0 0 1-4.592-4.021A13.407 13.407 0 0 1 .87 26.108a2.69 2.69 0 0 1 .765-1.878 2.57 2.57 0 0 1 1.848-.775c.692 0 1.356.28 1.846.777a2.68 2.68 0 0 1 .767 1.876 8.03 8.03 0 0 0 2.082 5.416 7.82 7.82 0 0 0 3.711 2.28 7.72 7.72 0 0 0 4.337-.072 7.832 7.832 0 0 0 3.635-2.405 8.033 8.033 0 0 0 1.822-4.001l-2.82-3.338c-1.936-2.296-.33-5.84 2.648-5.84h2.875v-.002Z" fill="#9C9C9C"/><path d="M36.58 11.07c.686.001 1.365-.136 1.999-.402a5.216 5.216 0 0 0 1.695-1.15 5.316 5.316 0 0 0 1.133-1.722 5.387 5.387 0 0 0 0-4.064 5.316 5.316 0 0 0-1.133-1.723A5.217 5.217 0 0 0 38.58.86a5.147 5.147 0 0 0-3.998 0 5.217 5.217 0 0 0-1.695 1.15 5.315 5.315 0 0 0-1.133 1.723 5.386 5.386 0 0 0 0 4.063c.263.645.648 1.23 1.133 1.723a5.217 5.217 0 0 0 1.695 1.15 5.147 5.147 0 0 0 1.999.403Zm-24.386 0c.685.001 1.365-.136 1.998-.402a5.216 5.216 0 0 0 1.695-1.15 5.317 5.317 0 0 0 1.133-1.723 5.388 5.388 0 0 0 0-4.063 5.317 5.317 0 0 0-1.133-1.722A5.217 5.217 0 0 0 14.193.86a5.147 5.147 0 0 0-3.998 0 5.217 5.217 0 0 0-1.696 1.15 5.316 5.316 0 0 0-1.133 1.722 5.386 5.386 0 0 0 0 4.064c.263.644.648 1.23 1.133 1.722a5.216 5.216 0 0 0 1.695 1.15 5.147 5.147 0 0 0 2 .403Zm71.955-9.317c.805 0 1.466.234 1.983.701.517.468.775 1.081.775 1.842v26.207c0 .79-.243 1.417-.733 1.884-.487.468-1.134.701-1.938.701-.805 0-1.451-.233-1.94-.7-.489-.468-.734-1.096-.734-1.884v-1.097a6.772 6.772 0 0 1-2.759 2.805c-1.178.672-2.528 1.008-4.051 1.008-1.811 0-3.434-.468-4.87-1.402-1.41-.935-2.515-2.25-3.32-3.945-.776-1.723-1.164-3.695-1.164-5.916 0-2.22.388-4.163 1.164-5.83.805-1.664 1.91-2.95 3.32-3.855 1.407-.906 3.03-1.36 4.87-1.36 1.523 0 2.873.322 4.052.965a6.631 6.631 0 0 1 2.715 2.717V4.207c0-.73.23-1.314.69-1.753.489-.467 1.135-.7 1.94-.7ZM76.174 28.97c1.725 0 3.046-.599 3.966-1.797.948-1.198 1.422-2.908 1.422-5.128s-.474-3.915-1.422-5.082c-.92-1.2-2.227-1.799-3.922-1.799-1.725 0-3.062.585-4.01 1.754-.947 1.169-1.422 2.849-1.422 5.04 0 2.22.475 3.944 1.422 5.172.948 1.227 2.27 1.84 3.966 1.84Zm25.888 4.25c-2.154 0-4.051-.452-5.689-1.357-1.61-.906-2.86-2.206-3.75-3.9-.891-1.696-1.337-3.668-1.337-5.918s.445-4.207 1.337-5.872c.89-1.695 2.14-2.995 3.75-3.9 1.638-.906 3.535-1.36 5.689-1.36 2.156 0 4.038.453 5.647 1.36a9.034 9.034 0 0 1 3.751 3.9c.89 1.665 1.336 3.623 1.336 5.872 0 2.251-.446 4.222-1.336 5.917a9.035 9.035 0 0 1-3.751 3.9c-1.609.905-3.491 1.359-5.646 1.359h-.001Zm-.042-4.25c1.753 0 3.089-.585 4.008-1.753.921-1.169 1.38-2.893 1.38-5.172 0-2.25-.459-3.958-1.38-5.127-.919-1.198-2.241-1.797-3.966-1.797-1.723 0-3.06.599-4.008 1.797-.92 1.169-1.38 2.878-1.38 5.127 0 2.28.46 4.003 1.38 5.172.92 1.168 2.242 1.753 3.966 1.753Zm33.07-17.968c.805 0 1.451.233 1.939.7.489.468.733 1.096.733 1.884v17.312c0 3.36-.919 5.901-2.758 7.627-1.84 1.723-4.555 2.584-8.148 2.584-3.132 0-5.747-.597-7.844-1.796-1.064-.643-1.595-1.417-1.595-2.323 0-.643.144-1.153.431-1.533a1.5 1.5 0 0 1 1.206-.571c.26 0 .575.059.949.176.373.146.762.307 1.163.482.9.389 1.822.726 2.76 1.008.833.233 1.781.35 2.845.35 3.764 0 5.646-1.869 5.646-5.61v-2.804a6.773 6.773 0 0 1-2.758 2.805c-1.207.643-2.587.964-4.138.964-1.84 0-3.478-.438-4.915-1.314-1.408-.907-2.514-2.162-3.319-3.77-.805-1.607-1.207-3.462-1.207-5.566 0-2.103.389-3.959 1.164-5.565.805-1.637 1.926-2.893 3.362-3.77 1.437-.905 3.075-1.359 4.915-1.359 1.551 0 2.931.336 4.138 1.008a6.505 6.505 0 0 1 2.758 2.762v-1.14c0-.759.245-1.373.733-1.841.489-.467 1.136-.7 1.94-.7Zm-8.147 17.004c1.725 0 3.06-.57 4.008-1.709.978-1.14 1.466-2.703 1.466-4.69 0-2.016-.488-3.594-1.466-4.733-.948-1.14-2.283-1.709-4.008-1.709-1.696 0-3.032.57-4.009 1.71-.976 1.139-1.466 2.716-1.466 4.732 0 1.987.49 3.55 1.466 4.69.977 1.14 2.313 1.71 4.009 1.71Zm24.03 5.215c-3.133 0-5.661-.628-7.587-1.885-.919-.555-1.379-1.344-1.379-2.366 0-.585.158-1.052.474-1.402.317-.38.704-.57 1.164-.57.488 0 1.164.234 2.026.701.92.439 1.753.775 2.5 1.008.776.234 1.753.35 2.931.35 1.207 0 2.141-.204 2.802-.614.69-.409 1.034-.977 1.034-1.709 0-.495-.143-.89-.431-1.182-.258-.293-.747-.556-1.465-.79-.69-.262-1.753-.554-3.19-.876-2.557-.526-4.397-1.27-5.518-2.235-1.092-.963-1.637-2.293-1.637-3.987 0-1.286.373-2.44 1.121-3.464.746-1.05 1.766-1.854 3.06-2.41 1.321-.584 2.816-.877 4.482-.877 1.208 0 2.372.162 3.492.483a10.11 10.11 0 0 1 3.018 1.314c.919.585 1.379 1.359 1.379 2.324 0 .583-.158 1.08-.474 1.49-.316.38-.705.57-1.164.57-.316 0-.633-.06-.948-.176-.379-.195-.752-.4-1.121-.614-.834-.438-1.552-.759-2.156-.963-.603-.234-1.35-.351-2.241-.351-1.063 0-1.911.22-2.543.656-.604.439-.906 1.039-.906 1.798 0 .73.317 1.286.949 1.665.633.38 1.854.76 3.664 1.14 1.926.41 3.434.876 4.526 1.402 1.092.526 1.868 1.184 2.327 1.972.49.79.733 1.798.733 3.024 0 1.987-.818 3.58-2.456 4.777-1.61 1.198-3.766 1.797-6.466 1.797Z" fill="#9C9C9C"/></svg>