<svg width="172" height="40" fill="none" xmlns="http://www.w3.org/2000/svg"><path d="M2.82 31.655c-.852 0-1.543-.265-2.071-.796-.5-.53-.749-1.223-.749-2.078V2.918C0 2.063.235 1.4.705.928 1.204.457 1.879.221 2.73.221h15.461c1.791 0 2.687.766 2.687 2.299 0 1.503-.896 2.255-2.687 2.255H5.594v8.488h11.717c1.791 0 2.687.767 2.687 2.3 0 1.502-.896 2.254-2.687 2.254H5.594V28.78c0 .855-.25 1.547-.749 2.078-.499.53-1.174.796-2.026.796Zm26.14 0c-.793 0-1.454-.221-1.982-.663-.5-.472-.749-1.135-.749-1.99V2.608c0-.854.25-1.503.749-1.945C27.506.221 28.168 0 28.96 0c.793 0 1.454.221 1.982.663.529.442.793 1.09.793 1.945v26.394c0 .855-.264 1.518-.793 1.99-.528.442-1.19.663-1.982.663Zm25.5-6.19c.5 0 .896.192 1.19.575.322.383.484.899.484 1.547 0 .914-.543 1.68-1.63 2.3-.998.56-2.129 1.016-3.392 1.37-1.262.324-2.466.486-3.612.486-3.465 0-6.21-1.002-8.237-3.006-2.026-2.004-3.04-4.745-3.04-8.223 0-2.21.441-4.17 1.322-5.88s2.115-3.036 3.7-3.98c1.616-.942 3.436-1.414 5.462-1.414 1.939 0 3.627.427 5.066 1.282s2.555 2.063 3.348 3.625c.793 1.563 1.19 3.405 1.19 5.527 0 1.267-.559 1.9-1.675 1.9H41.642c.176 2.034.749 3.538 1.718 4.51.969.943 2.378 1.415 4.228 1.415.94 0 1.762-.118 2.467-.354.734-.235 1.556-.56 2.467-.972.88-.472 1.527-.708 1.938-.708ZM46.839 13.13c-1.498 0-2.702.472-3.612 1.415-.881.943-1.41 2.3-1.586 4.068h9.955c-.059-1.798-.5-3.154-1.322-4.068-.822-.943-1.967-1.415-3.435-1.415ZM79.06 27.322c.529.53.793 1.135.793 1.813 0 .648-.25 1.238-.749 1.768-.499.501-1.086.752-1.762.752-.734 0-1.365-.31-1.894-.929l-6.21-6.896-6.212 6.896c-.558.59-1.189.884-1.894.884-.646 0-1.218-.25-1.718-.751-.499-.501-.748-1.076-.748-1.724 0-.678.264-1.282.793-1.813l6.43-7.03-6.078-6.63c-.529-.532-.793-1.136-.793-1.814 0-.678.25-1.252.749-1.724.5-.5 1.072-.751 1.718-.751.705 0 1.336.294 1.894.884l5.858 6.455 5.859-6.455c.558-.59 1.19-.884 1.894-.884.675 0 1.248.25 1.718.751.499.472.749 1.046.749 1.724 0 .678-.265 1.282-.793 1.813l-6.079 6.632 6.475 7.03Zm24.37-12.025c1.791.5 3.171 1.415 4.14 2.74.999 1.327 1.498 2.948 1.498 4.864 0 2.653-.954 4.73-2.863 6.234-1.88 1.503-4.479 2.255-7.797 2.255H87.043c-.851 0-1.527-.236-2.026-.708-.47-.471-.704-1.135-.704-1.99V2.919c0-.855.234-1.518.704-1.99.5-.471 1.175-.707 2.026-.707h10.924c3.23 0 5.755.722 7.576 2.166 1.85 1.415 2.775 3.405 2.775 5.969 0 1.65-.44 3.08-1.321 4.288-.852 1.209-2.041 2.093-3.568 2.653h.001Zm-13.567-1.945h7.18c3.905 0 5.858-1.46 5.858-4.377 0-1.474-.484-2.564-1.454-3.272-.969-.707-2.437-1.06-4.404-1.06h-7.18v8.709Zm7.928 13.616c2.056 0 3.554-.368 4.493-1.105.94-.737 1.41-1.886 1.41-3.448s-.485-2.727-1.454-3.493c-.939-.766-2.422-1.15-4.449-1.15h-7.928v9.196h7.928Zm18.837 4.687c-.793 0-1.454-.221-1.983-.663-.499-.472-.748-1.135-.748-1.99V2.608c0-.854.249-1.503.748-1.945.529-.442 1.19-.663 1.983-.663.792 0 1.453.221 1.982.663.528.442.793 1.09.793 1.945v26.394c0 .855-.265 1.518-.793 1.99-.529.442-1.19.663-1.982.663Zm18.276.088c-2.203 0-4.141-.457-5.815-1.37-1.644-.914-2.922-2.226-3.832-3.935-.91-1.71-1.366-3.7-1.366-5.968 0-2.27.456-4.245 1.366-5.925.91-1.71 2.188-3.02 3.832-3.934 1.674-.914 3.612-1.371 5.815-1.371 2.202 0 4.125.457 5.77 1.37a9.162 9.162 0 0 1 3.832 3.935c.911 1.68 1.366 3.655 1.366 5.925 0 2.269-.455 4.258-1.366 5.968a9.162 9.162 0 0 1-3.832 3.935c-1.645.913-3.568 1.37-5.77 1.37Zm-.044-4.288c1.791 0 3.156-.59 4.096-1.769.94-1.179 1.41-2.918 1.41-5.216 0-2.27-.47-3.994-1.41-5.173-.94-1.209-2.29-1.813-4.052-1.813-1.762 0-3.128.604-4.097 1.813-.94 1.179-1.41 2.903-1.41 5.172 0 2.3.47 4.038 1.41 5.217.94 1.18 2.291 1.769 4.053 1.769Zm33.793-18.127c.823 0 1.483.236 1.983.708.499.471.748 1.105.748 1.9V29.4c0 3.39-.939 5.954-2.819 7.693-1.879 1.739-4.654 2.608-8.325 2.608-3.201 0-5.873-.604-8.017-1.813-1.086-.648-1.63-1.429-1.63-2.343 0-.648.147-1.164.441-1.547a1.542 1.542 0 0 1 1.233-.575c.264 0 .587.06.969.177.382.147.778.31 1.19.486 1.057.442 1.996.781 2.819 1.017.851.236 1.82.354 2.907.354 3.847 0 5.77-1.886 5.77-5.66v-2.829c-.646 1.209-1.585 2.152-2.819 2.83-1.233.648-2.643.973-4.228.973-1.88 0-3.554-.443-5.022-1.327-1.439-.913-2.57-2.18-3.392-3.802-.822-1.62-1.233-3.492-1.233-5.615 0-2.122.396-3.993 1.189-5.614.822-1.65 1.968-2.918 3.436-3.803 1.468-.913 3.142-1.37 5.022-1.37 1.585 0 2.995.339 4.228 1.017a6.6 6.6 0 0 1 2.819 2.785v-1.15c0-.766.25-1.385.749-1.856.499-.472 1.16-.708 1.982-.708Zm-8.325 17.154c1.762 0 3.128-.575 4.097-1.724.998-1.15 1.497-2.726 1.497-4.73 0-2.034-.499-3.626-1.497-4.775-.969-1.15-2.335-1.725-4.097-1.725-1.732 0-3.098.575-4.096 1.725-.999 1.15-1.498 2.74-1.498 4.774 0 2.005.499 3.581 1.498 4.73.998 1.15 2.364 1.725 4.096 1.725Z" fill="#9C9C9C"/></svg>