<svg width="146" height="53" fill="none" xmlns="http://www.w3.org/2000/svg"><path d="m26.167 11.431-4.834 29.996h-6.945l1.764-10.831h-7.48l-1.73 10.83H0l4.873-29.995h6.906L9.707 24.096h7.481l2.074-12.665h6.906-.001ZM40.41 41.427l.232-6.54h-6.408l-1.88 6.54h-7.328l9.86-29.996h12.66l.155 29.996h-7.29Zm-1.572-22.705-3.03 10.582h5.026l.421-10.581h-2.417v-.001Zm38.66-7.291-4.834 29.996h-6.945l-4.833-16.413-2.609 16.414h-6.946l4.873-29.997h7.136l4.758 15.332 2.493-15.332h6.907Zm16.203 0c3.35 0 5.742.917 7.173 2.75 1.05 1.388 1.573 3.125 1.573 5.208 0 .75-.063 1.54-.19 2.374l-1.497 9.29c-.512 3.138-1.766 5.653-3.76 7.542-1.996 1.889-4.579 2.832-7.752 2.832H78.084l4.873-29.996h10.744Zm-2.418 6.5h-2.494l-2.724 16.996h3.645c1.202 0 2.136-.348 2.8-1.04.692-.724 1.164-1.89 1.418-3.5l1.115-6.833c.096-.55.148-1.108.153-1.667 0-2.64-1.303-3.957-3.913-3.957v.001Zm31.727 23.496h-19.261l4.875-29.996h19.26l-1.074 6.5h-12.354l-.883 5.624h10.206l-1.074 6.498h-10.206l-.767 4.875h12.354l-1.075 6.499h-.001Zm21.915 0H127.43l4.873-29.996h6.906l-3.798 23.497H146l-1.075 6.499Zm-67.754 5.338h66.743L141.829 53H75.086l2.085-6.235ZM7.3 0h73l-2.086 6.235h-73L7.3 0Z" fill="#9C9C9C"/></svg>