<svg width="218" height="43" fill="none" xmlns="http://www.w3.org/2000/svg"><g clip-path="url(#a)"><path fill-rule="evenodd" clip-rule="evenodd" d="M14.605 37.885a.911.911 0 0 1-.718-.36c-.24-.319-.4-.688-.472-1.08a14.622 14.622 0 0 1-.262-1.51c-.072-.654-.11-1.311-.11-1.969-.022-1.445-.017-2.89.014-4.335.019-.888.027-1.58.027-2.08v-16.52c0-.813.005-1.432.015-1.857.01-.425.042-.905.095-1.44.032-.4.1-.794.209-1.179.105-.296.244-.58.414-.845.157-.278.386-.508.663-.665.323-.161.655-.304.995-.43a6.62 6.62 0 0 1 1.353-.346 39.816 39.816 0 0 1 1.811-.222V1.52l-.472-.472H1.48l-.442.472v1.302c2.8.167 4.366.962 4.697 2.384.193 1.201.285 2.415.277 3.631v25.304c.046 1.314-.01 2.63-.167 3.936-.076.203-.189.39-.331.554-.213.255-.44.5-.676.734a8.966 8.966 0 0 0-.539.568v.97c14.24 0 23.055.093 26.443.278l1.19-4.019-.746-.527a165.743 165.743 0 0 1-16.58 1.248h-.001v.001ZM41.075 26.3a.768.768 0 0 1-.165.027c-.276 0-.414-.1-.414-.304 0-.918.07-1.836.207-2.744.155-.99.414-1.962.774-2.896.346-.947.821-1.843 1.411-2.66a6.634 6.634 0 0 1 5.375-2.648 4.334 4.334 0 0 1 3.84 1.913 7.612 7.612 0 0 1 1.3 4.379 1.404 1.404 0 0 1-.927 1.302 45.096 45.096 0 0 1-4.628 1.58 311.42 311.42 0 0 0-6.603 2.025.774.774 0 0 0-.17.026Zm16.413 8.647c-3.317 2.014-6.181 3.02-8.592 3.02a7.853 7.853 0 0 1-4.587-1.357 8.218 8.218 0 0 1-2.888-3.395 10.488 10.488 0 0 1-.925-4.393c12.047-3.75 18.126-5.626 18.236-5.626a2.042 2.042 0 0 0 1.63-2.106 7.91 7.91 0 0 0-.926-3.908 6.757 6.757 0 0 0-2.5-2.591 12.105 12.105 0 0 0-3.413-1.359 17.409 17.409 0 0 0-3.967-.43 16.718 16.718 0 0 0-6.961 1.4 13.347 13.347 0 0 0-4.987 3.743 17.018 17.018 0 0 0-2.887 5.265 18.844 18.844 0 0 0-.996 6.112c0 4.268 1.153 7.465 3.454 9.59 2.082 1.94 5.02 2.91 8.815 2.91a14.217 14.217 0 0 0 6.259-1.525 48.296 48.296 0 0 0 6.7-4.048l-.605-1.078-.859-.224ZM94.704 5.723a8.091 8.091 0 0 0-4.062-4.407 17.14 17.14 0 0 0-7.322-1.33 21.49 21.49 0 0 0-5.429.665 16.517 16.517 0 0 0-4.67 1.996 9.599 9.599 0 0 0-3.357 3.618 10.813 10.813 0 0 0-1.244 5.252 8.054 8.054 0 0 0 .925 3.754 10.489 10.489 0 0 0 2.322 3.036 28.205 28.205 0 0 0 3.26 2.48c1.148.767 2.339 1.47 3.565 2.107a61.802 61.802 0 0 1 3.399 1.886c.922.522 1.788 1.14 2.583 1.842 2.044 1.904 3.067 3.714 3.067 5.433a6.686 6.686 0 0 1-2.128 4.863 6.992 6.992 0 0 1-5.111 2.12 7.291 7.291 0 0 1-5.844-2.66 9.133 9.133 0 0 1-2.252-6.072l-1.076-.387-5.498 6.18a12.874 12.874 0 0 0 4.947 4.255c2.02.992 4.243 1.5 6.493 1.484a20.537 20.537 0 0 0 6.051-.944 22.33 22.33 0 0 0 5.582-2.564 13.496 13.496 0 0 0 4.102-4.101 9.625 9.625 0 0 0 1.59-5.28 8.192 8.192 0 0 0-.525-2.952 9.441 9.441 0 0 0-1.354-2.44 12.1 12.1 0 0 0-2.308-2.174 29.523 29.523 0 0 0-2.943-1.956 100.982 100.982 0 0 0-3.702-2.01c-.87-.422-1.727-.87-2.57-1.345a30.746 30.746 0 0 1-2.324-1.503 11.65 11.65 0 0 1-2.098-1.846 8.548 8.548 0 0 1-1.327-2.163 6.59 6.59 0 0 1-.552-2.674 5.632 5.632 0 0 1 1.613-4.075 5.693 5.693 0 0 1 4.27-1.662 6.618 6.618 0 0 1 5.208 2.189 9.696 9.696 0 0 1 2.363 5.294l.967.304 5.39-4.213Zm26.871 10.63a5.601 5.601 0 0 0-2.072-2.08 9.983 9.983 0 0 0-2.736-1.066 14.007 14.007 0 0 0-3.136-.332 16.36 16.36 0 0 0-5.899 1.012 12.81 12.81 0 0 0-4.365 2.674 14.502 14.502 0 0 0-2.874 3.92 18.626 18.626 0 0 0-1.645 4.643 24.233 24.233 0 0 0-.496 4.961 14.592 14.592 0 0 0 .593 4.183c.388 1.314.99 2.555 1.781 3.673a8.232 8.232 0 0 0 3.248 2.66 10.878 10.878 0 0 0 4.739.984c5.176 0 10.039-2.282 14.589-6.845l-.552-.805-.691-.165c-3.371 2.605-6.484 3.907-9.339 3.907a6.607 6.607 0 0 1-3.081-.706 6.224 6.224 0 0 1-2.2-1.828 11.136 11.136 0 0 1-1.396-2.578 13.915 13.915 0 0 1-.787-2.84 17.748 17.748 0 0 1-.221-2.773c.006-1.18.108-2.356.304-3.52.217-1.294.541-2.569.967-3.81a7.975 7.975 0 0 1 1.962-3.216 4.238 4.238 0 0 1 3.04-1.26 4.06 4.06 0 0 1 3.757 2.05 9.723 9.723 0 0 1 1.216 5.045l.967.389 5.223-3.104a7.033 7.033 0 0 0-.896-3.174Zm10.127 8.245a17.03 17.03 0 0 1 .733-3.2 11.99 11.99 0 0 1 1.339-2.87 6.41 6.41 0 0 1 2.143-2.009 5.893 5.893 0 0 1 3.053-.79 6.096 6.096 0 0 1 3.301.873 5.759 5.759 0 0 1 2.141 2.384c.5 1.014.862 2.09 1.077 3.2a18.89 18.89 0 0 1 .332 3.632c0 1.108-.009 2.032-.028 2.77-.03.89-.094 1.778-.193 2.662-.082.87-.234 1.732-.456 2.577a13.173 13.173 0 0 1-.843 2.163 5.423 5.423 0 0 1-1.34 1.8 6.637 6.637 0 0 1-1.962 1.11c-.864.309-1.776.459-2.694.443a4.9 4.9 0 0 1-2.833-.86 6.352 6.352 0 0 1-1.974-2.12 13.071 13.071 0 0 1-1.189-2.895 19.29 19.29 0 0 1-.636-3.037 23.21 23.21 0 0 1-.166-2.674c0-1.056.065-2.111.195-3.159Zm-3.426 14.33c2.007 1.829 5.194 2.743 9.561 2.743 1.614.01 3.224-.175 4.794-.555a14.152 14.152 0 0 0 4.169-1.787 12.363 12.363 0 0 0 3.33-3.09 14.436 14.436 0 0 0 2.183-4.602 21.97 21.97 0 0 0 .802-6.152 11.548 11.548 0 0 0-3.786-8.925c-2.304-2.068-5.647-3.103-10.03-3.103-4.384 0-7.995 1.358-10.832 4.074a13.61 13.61 0 0 0-4.255 10.283c0 4.952 1.353 8.656 4.061 11.114h.003Zm43.242-21.951c1.473 0 2.524.295 3.15.887.584.713.953 1.58 1.063 2.496.232 1.08.375 2.18.429 3.284.036.97.055 2.222.055 3.755a475.67 475.67 0 0 1-.041 5.973c-.009.6-.005 1.307.013 2.12.005.607.042 1.213.111 1.815.056.399.129.833.221 1.303.064.394.195.773.387 1.122.166.278.369.53.606.75a4.277 4.277 0 0 0 3.038 1.107c1.383 0 2.966-.702 4.753-2.106a52.011 52.011 0 0 0 4.255-3.964l-.635-.944h-.663a6.735 6.735 0 0 1-3.785 1.47 2.156 2.156 0 0 1-1.603-.583 2.147 2.147 0 0 1-.485-.539 3.99 3.99 0 0 1-.289-1.137 16.016 16.016 0 0 1-.138-2.397c0-.61.032-1.594.096-2.951.052-.965.084-1.931.098-2.897v-1.663c.017-1.793.013-3.035-.014-3.729a26.296 26.296 0 0 0-.319-2.826 5.136 5.136 0 0 0-.856-2.467 5.764 5.764 0 0 0-1.713-1.274 6.01 6.01 0 0 0-2.819-.597c-3.241 0-7 1.33-11.273 3.992l-.663-.25a5.265 5.265 0 0 0-.953-2.84c-.544-.713-1.479-1.068-2.805-1.068a7.547 7.547 0 0 0-2.335.402c-.875.293-1.71.694-2.488 1.191a37.839 37.839 0 0 0-2.183 1.47 65.728 65.728 0 0 0-2.141 1.648l1.022 1.358c.188-.121.377-.241.567-.36.321-.203.602-.368.842-.498.239-.13.525-.282.857-.458.296-.161.606-.297.926-.405.244-.084.5-.13.759-.138.32-.007.635.073.912.236.281.186.492.458.605.776.139.336.258.677.359 1.025a7.1 7.1 0 0 1 .194 1.428c.038.63.06 1.137.067 1.524.008.387.012.97.014 1.746v.472c0 1.81-.139 7.353-.414 16.629l.69.388 6.217-1.802c-.184-.794-.322-3.297-.415-7.51-.091-4.12-.136-8.24-.134-12.361 3.205-1.737 5.489-2.606 6.853-2.606l.005.003Zm26.802 9.449a.73.73 0 0 1-.165.03c-.276 0-.414-.102-.415-.305.001-.92.07-1.836.208-2.744.155-.99.414-1.962.773-2.897a11.07 11.07 0 0 1 1.409-2.66 6.636 6.636 0 0 1 5.375-2.648 4.332 4.332 0 0 1 3.84 1.913 7.606 7.606 0 0 1 1.299 4.379 1.41 1.41 0 0 1-.926 1.302 45.218 45.218 0 0 1-4.627 1.58c-2.209.65-4.41 1.326-6.604 2.025a.816.816 0 0 0-.166.026h-.001v-.001Zm16.413 8.648c-3.317 2.015-6.181 3.022-8.593 3.02a7.86 7.86 0 0 1-4.587-1.356 8.221 8.221 0 0 1-2.887-3.395 10.497 10.497 0 0 1-.926-4.395c12.047-3.749 18.126-5.624 18.237-5.624a2.042 2.042 0 0 0 1.63-2.107 7.913 7.913 0 0 0-.925-3.908 6.762 6.762 0 0 0-2.501-2.592 12.12 12.12 0 0 0-3.413-1.358 17.405 17.405 0 0 0-3.968-.43 16.714 16.714 0 0 0-6.959 1.4 13.349 13.349 0 0 0-4.987 3.742 16.993 16.993 0 0 0-2.887 5.266 18.813 18.813 0 0 0-.995 6.112c0 4.268 1.151 7.464 3.454 9.59 2.081 1.94 5.019 2.909 8.814 2.909a14.217 14.217 0 0 0 6.259-1.524 48.38 48.38 0 0 0 6.7-4.047l-.604-1.08-.862-.223Z" fill="#9C9C9C"/></g><defs><clipPath id="a"><path fill="#fff" d="M0 0h218v43H0z"/></clipPath></defs></svg>