<svg width="156" height="38" fill="none" xmlns="http://www.w3.org/2000/svg"><path d="M51.252 37.493V0h-9.46L22.008 28.93l-3.34-4.205c5.97-.912 9.31-6.181 9.31-11.805 0-5.37-2.935-9.88-6.881-11.603C19.125.456 16.19 0 12.295 0H0v37.493h9.158V25.384h.1l8.652 12.11h9.664l3.289-5.422H41.69v5.421h9.562ZM9.158 18.848V8.411H12.8c3.593 0 6.021 1.824 6.021 5.066 0 3.446-2.277 5.371-6.071 5.371H9.158Zm32.532 5.624h-6.274l6.173-10.387h.1v10.387Zm47.936 13.021V0H80.47l.404 23.712L66.303 0h-8.248v37.493h9.158l-.253-22.901 14.369 22.901h8.297Zm27.614 0v-8.41h-11.636v-6.435h11.282v-8.41h-11.282V8.41h11.636V0H96.446v37.493h20.794Zm38.012 0-13.206-18.797L154.442 0h-10.018L133.85 16.872h-.101V0h-9.562v37.493h9.562V21.28h.101l10.22 16.213h11.182Z" fill="#9C9C9C"/></svg>