<svg width="210" height="51" fill="none" xmlns="http://www.w3.org/2000/svg"><g clip-path="url(#a)" fill="#9C9C9C"><path d="M57.1 45.81c-3.486 0-6.158-.59-8.018-1.773-1.827-1.216-2.74-2.99-2.74-5.323 0-1.182.4-2.152 1.196-2.908.83-.788 1.893-1.182 3.188-1.182.763.033 1.343.229 1.742.591.4.329.599.641.599.937 0 .032-.167.148-.499.344-.332.198-.63.494-.896.887-.266.396-.4.937-.4 1.627 0 1.544.467 2.744 1.396 3.598.963.821 2.44 1.231 4.432 1.231 1.362 0 2.557-.262 3.587-.788 1.029-.525 1.809-1.215 2.34-2.07.564-.887.847-1.807.847-2.76 0-1.182-.349-2.2-1.046-3.055a8.176 8.176 0 0 0-2.49-2.119c-.997-.591-2.358-1.266-4.084-2.021-1.992-.887-3.602-1.692-4.83-2.415a10.358 10.358 0 0 1-3.14-2.858c-.862-1.216-1.293-2.71-1.293-4.485 0-2.858.978-4.994 2.938-6.406 1.992-1.414 4.599-2.12 7.819-2.12 2.523 0 4.714.526 6.574 1.578 1.893 1.05 2.84 2.595 2.84 4.631 0 1.184-.417 2.17-1.246 2.958-.797.756-1.843 1.134-3.138 1.134-.764-.034-1.345-.215-1.743-.543-.399-.36-.598-.69-.598-.985 0-.034.216-.148.648-.346a3.143 3.143 0 0 0 1.195-.887c.365-.394.548-.936.548-1.625 0-1.216-.481-2.17-1.444-2.86-.93-.69-2.125-1.034-3.587-1.034-2.024 0-3.569.477-4.63 1.43-1.03.92-1.545 2.07-1.545 3.45 0 1.148.315 2.119.946 2.906.63.756 1.644 1.512 3.038 2.267 1.209.63 2.438 1.222 3.685 1.775 2.126.952 3.802 1.823 5.03 2.612a10.054 10.054 0 0 1 3.138 3.105c.863 1.28 1.296 2.875 1.296 4.78 0 1.643-.531 3.137-1.594 4.485-1.029 1.314-2.441 2.349-4.233 3.104-1.76.756-3.703 1.135-5.828 1.135v-.001Zm25.214-.393c-2.258 0-4.051-.674-5.38-2.021-1.328-1.347-1.991-3.121-1.991-5.323v-9.117c0-.854-.034-1.478-.1-1.873-.033-.393-.232-.739-.599-1.034-.364-.296-.978-.444-1.841-.444-.4 0-.698-.049-.897-.148-.2-.13-.298-.41-.298-.838 0-.197.066-.377.2-.54.132-.198.331-.313.597-.346 2.091-.297 3.885-.724 5.378-1.282.465-.164.846-.263 1.145-.296h.15c.53 0 .797.312.797.937v14.932c0 1.511.481 2.678 1.444 3.5a5.114 5.114 0 0 0 3.337 1.182c1.56 0 2.888-.378 3.984-1.134 1.096-.755 1.827-1.51 2.191-2.267V28.958c0-.855-.032-1.478-.099-1.874-.033-.393-.233-.739-.598-1.034-.365-.296-.98-.444-1.843-.444-.399 0-.697-.049-.895-.148-.2-.13-.3-.41-.3-.838 0-.197.067-.377.2-.54.132-.198.332-.313.597-.346 2.092-.297 3.885-.724 5.38-1.282.464-.164.846-.263 1.144-.296h.15c.531 0 .797.312.797.937v17.052c0 1.94 1.311 2.908 3.934 2.908.564 0 .847.313.847.937 0 .46-.283.74-.847.837l-8.018.542c-.233 0-.366-.082-.4-.245-.03-.133-.049-.378-.049-.74v-2.76h-.099c-.762.709-1.542 1.399-2.341 2.069-.597.46-1.378.854-2.341 1.183-.93.361-2.042.541-3.336.541v.001Zm20.155-.443a.762.762 0 0 1-.598-.297 1.21 1.21 0 0 1-.2-.689c.034-.427.134-.674.3-.739.167-.099.465-.149.896-.149.864 0 1.478-.148 1.843-.443.366-.296.565-.641.598-1.035.067-.395.099-1.019.099-1.873V28.463c0-.853-.032-1.478-.099-1.873-.033-.394-.232-.74-.598-1.034-.365-.295-.979-.444-1.843-.444-.399 0-.697-.05-.895-.148-.2-.131-.299-.41-.299-.838 0-.197.066-.378.199-.541.132-.198.332-.312.597-.346 2.158-.329 3.935-.755 5.329-1.28.565-.165.946-.264 1.146-.296h.149c.531 0 .797.312.797.936v3.055h.149c1.162-1.15 2.341-2.053 3.536-2.71 1.196-.69 2.275-1.035 3.237-1.035 1.097 0 1.96.41 2.591 1.232.663.789.995 1.709.995 2.76a3.89 3.89 0 0 1-.846 2.463c-.565.724-1.345 1.085-2.341 1.085a2.579 2.579 0 0 1-1.245-.296c-.332-.197-.514-.36-.548-.492.034-.066.2-.263.498-.592.299-.361.448-.771.448-1.232 0-.592-.166-1.067-.498-1.428-.299-.363-.714-.543-1.245-.543-.564 0-1.278.28-2.141.838-.864.526-1.71 1.2-2.54 2.02V39.75c0 .854.033 1.478.099 1.873.067.394.282.74.648 1.035.365.296.979.443 1.843.443h.299c.265 0 .464.05.597.148.133.099.215.346.249.74 0 .262-.066.492-.199.69-.133.197-.332.296-.598.296a103.027 103.027 0 0 0-5.229-.15c-1.494 0-3.22.05-5.18.149Zm77.351.443c-2.258 0-4.266-.526-6.026-1.578-1.76-1.083-3.138-2.497-4.134-4.238a11.608 11.608 0 0 1-1.444-5.618c0-2.464.581-4.6 1.743-6.406 1.163-1.84 2.64-3.237 4.432-4.19 1.794-.985 3.603-1.478 5.429-1.478 2.258 0 4.267.542 6.027 1.626a10.937 10.937 0 0 1 4.083 4.238 11.025 11.025 0 0 1 1.494 5.569c0 2.464-.597 4.617-1.792 6.457-1.162 1.807-2.64 3.202-4.433 4.188-1.792.953-3.586 1.43-5.379 1.43Zm0-1.823c2.258 0 3.902-.954 4.931-2.86 1.062-1.904 1.594-4.369 1.594-7.391 0-2.826-.549-5.125-1.644-6.901-1.062-1.806-2.69-2.71-4.881-2.71-2.29 0-3.95.938-4.98 2.81-1.029 1.872-1.544 4.32-1.544 7.343 0 2.825.531 5.158 1.594 6.997 1.063 1.808 2.706 2.712 4.93 2.712Zm24.154 2.069c-1.627 0-3.022-.591-4.184-1.774-1.162-1.183-1.743-2.875-1.743-5.076V24.324l-2.889.099a.62.62 0 0 1-.497-.247 1.116 1.116 0 0 1-.2-.641c0-.296.05-.541.149-.739.133-.23.316-.361.548-.394 1.163-.23 2.059-.592 2.69-1.084.664-.527 1.146-1.085 1.444-1.676.299-.624.665-1.56 1.096-2.81.166-.427.532-.64 1.095-.64.232 0 .466.066.698.198.232.098.348.262.348.492l-.348 5.618 5.827-.345h.1c.431 0 .647.312.647.937 0 .36-.066.706-.2 1.034-.099.297-.232.445-.398.445l-5.577-.148v14.981c0 1.085.215 1.988.646 2.71.466.724 1.212 1.085 2.242 1.085 1.029 0 1.943-.18 2.739-.542.432-.165.697-.247.797-.247.233 0 .415.1.548.296.133.164.265.395.399.69a.552.552 0 0 1 .049.246c0 .132-.1.28-.299.444-.963.624-1.876 1.035-2.739 1.232-.83.23-1.827.345-2.988.345Zm-80.497-.986c.132.198.332.296.597.296 1.725-.094 3.452-.143 5.18-.148 2.225 0 4.3.05 6.225.148a.63.63 0 0 0 .548-.296c.133-.198.199-.427.199-.69-.033-.393-.116-.64-.249-.739-.1-.098-.298-.148-.597-.148h-.3c-1.095 0-1.875-.082-2.34-.246-.465-.164-.78-.46-.946-.887-.166-.46-.249-1.2-.249-2.217V24.42h5.279a.763.763 0 0 0 .598-.295c.166-.197.249-.427.249-.69-.034-.393-.134-.64-.3-.739-.132-.131-.348-.198-.646-.198h-5.18v-2.956c0-1.576.066-2.957.198-4.14a7.935 7.935 0 0 1 1.146-3.351c.631-1.018 1.611-1.527 2.939-1.527.152 0 .3.008.443.026a8.286 8.286 0 0 1 .109-1.65 8.564 8.564 0 0 0-.203-.003c-2.923.066-5.197 1.166-6.823 3.303-1.594 2.102-2.391 4.846-2.391 8.23v2.07h-2.988c-.432 0-.731.048-.897.147-.166.066-.266.33-.298.788 0 .263.066.493.198.69a.808.808 0 0 0 .648.297h3.337v15.327c0 .888-.034 1.528-.1 1.922-.032.361-.232.69-.597.986-.366.296-.98.443-1.843.443-.432 0-.731.05-.897.148-.132.066-.215.312-.249.74 0 .262.066.492.2.69Z"/><path fill-rule="evenodd" clip-rule="evenodd" d="M150.1 10.268a5.452 5.452 0 0 1-1.623 3.873 5.572 5.572 0 0 1-3.911 1.601 5.552 5.552 0 0 1-3.91-1.601 5.452 5.452 0 0 1-1.623-3.873 5.47 5.47 0 0 1 1.622-3.874 5.57 5.57 0 0 1 3.911-1.602c.726-.002 1.445.14 2.117.414a5.52 5.52 0 0 1 2.994 2.964c.279.665.422 1.378.423 2.098Zm-5.534 2.737a2.784 2.784 0 0 0 1.956-.8 2.717 2.717 0 0 0 0-3.874 2.764 2.764 0 0 0-1.956-.802c-.733 0-1.436.288-1.955.801a2.728 2.728 0 0 0-.812 1.937 2.73 2.73 0 0 0 .812 1.937 2.778 2.778 0 0 0 1.955.801Zm-2.425 5.12V44.53c0 .295.084.525.249.69.166.197.398.295.698.295.298 0 .547-.131.746-.394.2-.23.382-.575.548-1.035.166-.46.315-.821.449-1.085h.248c2.158 1.61 4.715 2.415 7.67 2.415 1.993 0 3.868-.526 5.628-1.577a11.582 11.582 0 0 0 4.184-4.288c1.062-1.84 1.593-3.86 1.593-6.06 0-2.235-.464-4.222-1.395-5.965-.895-1.773-2.141-3.153-3.734-4.139-1.594-.986-3.371-1.478-5.329-1.478-1.196 0-2.408.246-3.636.74-1.195.46-2.275 1.165-3.238 2.118h-.149v-6.553a8.448 8.448 0 0 1-4.532-.09Zm15.041 22.905c-1.229 1.808-2.856 2.711-4.881 2.711-1.062 0-2.008-.23-2.839-.69-.797-.46-1.445-1.002-1.942-1.627-.465-.656-.747-1.248-.847-1.773v-13.01c1.427-1.513 3.187-2.268 5.28-2.268 2.357 0 4.133.92 5.329 2.76 1.194 1.807 1.792 3.992 1.792 6.554 0 3.056-.63 5.504-1.892 7.343ZM13.335.382a2.091 2.091 0 0 1 2.413 0c8.988 6.353 13.062 13.969 13.32 24.896.118 5.218-.39 9.995-1.934 14.122-1.585 4.13-4.403 7.945-8.55 11.167a2.088 2.088 0 0 1-1.848.354c-1.27-.361-1.487-1.852-2.195-2.78-.707.928-.921 2.418-2.194 2.779a2.096 2.096 0 0 1-1.847-.354C6.352 47.345 3.534 43.53 1.95 39.4.406 35.273-.102 30.496.017 25.278.273 14.351 4.347 6.734 13.335.382Zm4.647 45.479c2.596-2.363 4.16-4.94 5.265-7.902 1.391-3.622 1.792-7.625 1.672-12.585-.2-8.521-2.216-14.065-8.32-19.213v15.058c2.387.608 3.458 2.925 3.458 5.475 0 2.552-1.07 4.869-3.458 5.477v12.32s1.11 1.013 1.383 1.37Zm-6.917 0c-2.596-2.363-4.123-4.94-5.23-7.902-1.39-3.622-1.79-7.625-1.669-12.585.2-8.503 2.204-14.072 8.283-19.213v15.058c-2.387.608-3.459 2.925-3.459 5.475 0 2.552 1.071 4.869 3.459 5.477v12.32s-1.12 1.025-1.384 1.37Zm3.459-21.904c-.733-.001-1.437.287-1.956.8a2.728 2.728 0 0 0-.811 1.937c0 1.513 1.239 2.738 2.767 2.738.733 0 1.436-.287 1.955-.8.518-.514.81-1.21.811-1.937 0-1.512-1.239-2.738-2.766-2.738Z"/></g><defs><clipPath id="a"><path fill="#fff" d="M0 0h210v51H0z"/></clipPath></defs></svg>