<svg width="206" height="35" fill="none" xmlns="http://www.w3.org/2000/svg"><path d="M22.748 33.924a7.474 7.474 0 0 1-3.552-.791 7.172 7.172 0 0 1-2.706-2.358 12.363 12.363 0 0 1-7.85 3.15c-5.242 0-8.083-3.567-7.123-8.679.729-3.843 3.992-7.695 4.905-10.788-1.766-1.037-4.387-1.76-5.616.36L0 14.346c.643-2.325 2.198-3.87 4.444-3.87s3.906 1.286 6.047.101H12.2c-.911 4.63-3.215 8.334-4.444 14.818-.748 3.973.644 5.779 2.996 5.779a7.183 7.183 0 0 0 4.49-2.326 18.203 18.203 0 0 1-1.39-7.121c0-5.631 2.677-11.567 7.17-11.567 2.303 0 4.011 1.546 4.011 5.214 0 3.667-2.303 9.344-5.24 12.91.159.848.62 1.617 1.303 2.174a3.926 3.926 0 0 0 2.44.873c4.281 0 7.276-6.197 7.276-11.929 0-5.731-2.572-5.473-2.352-7.408a1.816 1.816 0 0 1 .66-1.258c.382-.32.88-.479 1.385-.446 1.335 0 3.09 1.63 3.09 8.242 0 8.427-4.646 15.392-10.847 15.392h.001Zm-.969-20.856c-1.335 0-2.621 4.751-2.784 9.66a20.3 20.3 0 0 0 .058 3.148 24.117 24.117 0 0 0 3.59-10.585c-.01-1.668-.327-2.224-.865-2.224l.001.001Zm20.608 20.643a3.972 3.972 0 0 1-1.658-.186 3.863 3.863 0 0 1-1.419-.846 3.694 3.694 0 0 1-.912-1.348 3.583 3.583 0 0 1-.235-1.593c0-2.27 3.053-13.577 3.053-15.438 0-.88-.212-1.398-1.018-1.398-.9.141-1.737.537-2.41 1.138v-1.602a8.015 8.015 0 0 1 5.087-2.009c.564-.05 1.131.021 1.664.206a3.92 3.92 0 0 1 1.418.863c.401.383.712.846.91 1.358a3.62 3.62 0 0 1 .231 1.601c0 2.269-3.05 13.53-3.05 15.383 0 .88.21 1.399 1.017 1.399a5.093 5.093 0 0 0 2.409-1.084V31.7a7.906 7.906 0 0 1-5.087 2.01Zm3.742-32.683c.419-.012.835.062 1.22.22.385.16.731.396 1.01.696.281.297.491.651.615 1.038.124.386.159.794.102 1.195A3.515 3.515 0 0 1 47.898 6.4c-.662.58-1.513.91-2.401.927a2.972 2.972 0 0 1-1.22-.22 2.881 2.881 0 0 1-1.01-.695 2.726 2.726 0 0 1-.615-1.038 2.685 2.685 0 0 1-.102-1.196 3.516 3.516 0 0 1 1.178-2.221 3.76 3.76 0 0 1 2.401-.927Zm11.883 27.83c-.268 1.398-.105 2.371.912 2.371a4.877 4.877 0 0 0 2.41-1.084l.095 1.556a8.014 8.014 0 0 1-5.087 2.01c-3.321 0-4.607-2.324-4.117-5.214l3.264-17.92c1.084-5.983.71-6.77-2.612-6.77l.211-1.444L63.1 1.084l-5.087 27.774Zm28.153-.047c-.27 1.4-.164 2.428.911 2.428a5.154 5.154 0 0 0 2.41-1.14v1.602a7.829 7.829 0 0 1-5.087 2.01 3.937 3.937 0 0 1-2.66-.788 3.68 3.68 0 0 1-1.41-2.314 8.676 8.676 0 0 1-3.024 2.44 9 9 0 0 1-3.83.912c-6.363 0-9.041-5.417-7.813-11.928 1.23-6.51 6.958-11.826 13.438-11.826a9.28 9.28 0 0 1 4.406 1.008l.163-.823c1.267-6.372.682-6.585-2.64-6.585l.163-1.444 10.059-1.279-5.087 27.728Zm-6.902-16.27c-3.696 0-6.152 4.231-7.122 9.445-1.017 5.474-.374 9.262 3.1 9.262 2.352 0 5.03-2.78 5.836-7.02l1.978-10.743a6.98 6.98 0 0 0-3.792-.945Zm23.814 21.429c-7.44 0-9.474-5.168-8.562-10.123l2.428-13.27c1.124-5.99.75-6.817-2.572-6.817l.21-1.444 10.041-1.232-2.035 11.252a9.158 9.158 0 0 1 5.616-2.12c6.478 0 9.521 5.316 8.35 11.826-1.171 6.51-7.131 11.929-13.476 11.929v-.001Zm3.474-21.3a5.247 5.247 0 0 0-2.99 1.003 4.954 4.954 0 0 0-1.809 2.506l-1.497 8.336c-.913 4.954.912 6.973 3.216 6.973 3.368 0 5.461-3.611 6.583-9.548.999-5.316.088-9.242-3.512-9.242l.009-.028Zm20.147 12.373c0 3.973 1.977 6.094 5.759 6.094 1.92 0 4.713-1.287 6.479-2.992l.749 1.648a13.854 13.854 0 0 1-4.485 3.056 14.257 14.257 0 0 1-5.363 1.13c-5.615 0-9.416-4.028-9.416-9.502 0-8.103 6.958-14.252 13.649-14.252 4.07 0 6.363 2.167 6.363 4.695-.047 3.926-3.905 8.336-13.735 10.123Zm6.901-12.447c-3.052 0-5.988 4.287-6.795 10.428 6.152-1.445 8.772-5.474 8.83-8.057-.009-1.445-.71-2.371-2.044-2.371h.009ZM162.27 33.71a3.939 3.939 0 0 1-2.66-.788 3.676 3.676 0 0 1-1.409-2.314 8.37 8.37 0 0 1-2.95 2.442 8.674 8.674 0 0 1-3.77.91c-6.257 0-8.935-5.417-7.678-11.928 1.257-6.51 6.891-11.818 13.39-11.818a10.433 10.433 0 0 1 4.011.78h6.105l-3.273 17.816c-.269 1.4-.163 2.428.912 2.428a5.154 5.154 0 0 0 2.409-1.14v1.602a7.827 7.827 0 0 1-5.087 2.01Zm-4.924-21.17c-3.59 0-6.104 4.231-7.065 9.445-1.017 5.474-.316 9.262 2.88 9.262 2.457 0 5.087-2.89 5.836-7.02l1.977-10.743a6.373 6.373 0 0 0-3.618-.945h-.01Zm28.69 3.768c-1.449 0-1.825-1.083-2.246-2.223a2.536 2.536 0 0 0-.977-1.437 2.693 2.693 0 0 0-1.701-.507 3.26 3.26 0 0 0-2.189.694 3.045 3.045 0 0 0-1.132 1.936c-.163 1.4.911 2.584 2.946 4.288l2.726 2.167a6.777 6.777 0 0 1 2.274 2.882 6.53 6.53 0 0 1 .404 3.6c-.692 3.871-4.012 6.251-8.457 6.251-5.356 0-8.772-3.047-8.398-5.112.087-.542.371-1.04.802-1.398.431-.36.98-.56 1.55-.565 1.391 0 1.919 1.029 2.351 2.37.278.773.81 1.434 1.517 1.883.709.449 1.548.66 2.39.6a3.43 3.43 0 0 0 2.295-.74 3.198 3.198 0 0 0 1.179-2.038c.212-1.852-.959-2.991-3.157-4.909l-2.678-2.269a6.51 6.51 0 0 1-2.131-2.683 6.27 6.27 0 0 1-.442-3.354c.481-2.482 2.88-5.557 8.399-5.557 4.281 0 6.959 2.324 6.719 4.186a2.001 2.001 0 0 1-.631 1.353 2.146 2.146 0 0 1-1.413.582Zm19.59-3.24h-5.193l-2.514 13.723c-.538 2.844-.106 4.132 1.496 4.132.855 0 2.198-.464 4.118-2.371l.105 2.01a9.31 9.31 0 0 1-3.168 2.346 9.634 9.634 0 0 1-3.896.857c-3.637 0-5.461-2.481-4.597-7.075l2.514-13.623h-4.06l.318-2.12h4.098l1.075-6.14h5.99l-1.124 6.139h5.193l-.355 2.12v.001Z" fill="#9C9C9C"/></svg>