<svg width="32" height="33" fill="none" xmlns="http://www.w3.org/2000/svg"><path d="M16 .361c-4.347 0-4.89.02-6.596.096C7.7.537 6.54.805 5.52 1.201a7.835 7.835 0 0 0-2.835 1.846A7.807 7.807 0 0 0 .84 5.88C.444 6.901.175 8.061.096 9.765.016 11.472 0 12.015 0 16.361c0 4.347.02 4.89.096 6.596.08 1.703.348 2.864.744 3.884a7.847 7.847 0 0 0 1.845 2.835 7.825 7.825 0 0 0 2.835 1.845c1.021.395 2.181.666 3.884.744 1.707.08 2.25.096 6.596.096 4.347 0 4.89-.02 6.596-.096 1.703-.08 2.864-.349 3.884-.744a7.864 7.864 0 0 0 2.835-1.845 7.814 7.814 0 0 0 1.845-2.835c.395-1.02.665-2.181.744-3.884.08-1.706.096-2.249.096-6.596 0-4.346-.02-4.889-.096-6.596-.08-1.702-.35-2.865-.744-3.884a7.853 7.853 0 0 0-1.845-2.834A7.796 7.796 0 0 0 26.48 1.2C25.46.805 24.299.536 22.596.457 20.889.377 20.346.361 16 .361Zm0 2.88c4.27 0 4.78.022 6.467.095 1.56.073 2.406.332 2.969.553.75.29 1.28.636 1.843 1.195.558.56.905 1.092 1.194 1.841.219.563.48 1.41.551 2.97.076 1.688.093 2.194.093 6.466s-.02 4.78-.098 6.467c-.082 1.56-.342 2.407-.562 2.97-.298.749-.638 1.28-1.198 1.842a4.992 4.992 0 0 1-1.84 1.195c-.56.218-1.42.48-2.98.55-1.699.076-2.199.094-6.479.094-4.281 0-4.781-.02-6.479-.099-1.561-.081-2.421-.341-2.981-.561-.759-.299-1.28-.639-1.839-1.199a4.859 4.859 0 0 1-1.2-1.84c-.22-.56-.478-1.42-.56-2.98-.06-1.68-.081-2.199-.081-6.459 0-4.261.021-4.781.081-6.481.082-1.56.34-2.419.56-2.979.28-.76.639-1.28 1.2-1.841.559-.559 1.08-.919 1.839-1.197.56-.222 1.401-.482 2.961-.562 1.7-.06 2.2-.08 6.479-.08l.06.04Zm0 4.904a8.215 8.215 0 0 0-8.216 8.216c0 4.54 3.68 8.216 8.216 8.216 4.54 0 8.216-3.68 8.216-8.216 0-4.54-3.68-8.216-8.216-8.216Zm0 13.55a5.332 5.332 0 0 1-5.333-5.334A5.332 5.332 0 0 1 16 11.028a5.332 5.332 0 0 1 5.333 5.333A5.332 5.332 0 0 1 16 21.695ZM26.461 7.82c0 1.06-.861 1.92-1.92 1.92-1.06 0-1.92-.861-1.92-1.92a1.921 1.921 0 0 1 3.84 0Z" fill="#EDEDED"/></svg>