<svg width="32" height="24" fill="none" xmlns="http://www.w3.org/2000/svg"><path d="M31.33 3.996a4.123 4.123 0 0 0-1.033-1.838A4.004 4.004 0 0 0 28.5 1.09C26.007.404 16 .404 16 .404s-10.007 0-12.503.687c-.68.19-1.298.557-1.794 1.067A4.124 4.124 0 0 0 .669 3.996C0 6.56 0 11.904 0 11.904s0 5.346.67 7.908c.18.695.537 1.329 1.033 1.839.497.51 1.116.877 1.796 1.067 2.494.686 12.501.686 12.501.686s10.007 0 12.503-.686a4.004 4.004 0 0 0 1.795-1.067 4.122 4.122 0 0 0 1.034-1.839C32 17.25 32 11.904 32 11.904s0-5.345-.67-7.908ZM12.728 16.757V7.051l8.364 4.853-8.364 4.853Z" fill="#EDEDED"/></svg>