<svg width="52" height="48" fill="none" xmlns="http://www.w3.org/2000/svg"><path d="M48 13a2 2 0 1 1 4 0 2 2 0 0 1-4 0ZM48 2a2 2 0 1 1 4 0 2 2 0 0 1-4 0ZM36 35a2 2 0 1 1 4 0 2 2 0 0 1-4 0ZM36 24a2 2 0 1 1 4 0 2 2 0 0 1-4 0ZM36 13a2 2 0 1 1 4 0 2 2 0 0 1-4 0ZM36 2a2 2 0 1 1 4 0 2 2 0 0 1-4 0ZM24 35a2 2 0 1 1 4 0 2 2 0 0 1-4 0ZM24 24a2 2 0 1 1 4 0 2 2 0 0 1-4 0ZM24 13a2 2 0 1 1 4 0 2 2 0 0 1-4 0ZM24 2a2 2 0 1 1 4 0 2 2 0 0 1-4 0ZM12 46a2 2 0 1 1 4 0 2 2 0 0 1-4 0ZM12 35a2 2 0 1 1 4 0 2 2 0 0 1-4 0ZM12 24a2 2 0 1 1 4 0 2 2 0 0 1-4 0ZM12 13a2 2 0 1 1 4 0 2 2 0 0 1-4 0ZM12 2a2 2 0 1 1 4 0 2 2 0 0 1-4 0ZM0 46a2 2 0 1 1 4 0 2 2 0 0 1-4 0ZM0 35a2 2 0 1 1 4 0 2 2 0 0 1-4 0ZM0 24a2 2 0 1 1 4 0 2 2 0 0 1-4 0ZM0 13a2 2 0 1 1 4 0 2 2 0 0 1-4 0ZM0 2a2 2 0 1 1 4 0 2 2 0 0 1-4 0Z" fill="gray" fill-opacity=".3"/></svg>