<svg width="52" height="48" fill="none" xmlns="http://www.w3.org/2000/svg"><path d="M4 13a2 2 0 1 0-4 0 2 2 0 0 0 4 0ZM4 2a2 2 0 1 0-4 0 2 2 0 0 0 4 0ZM16 35a2 2 0 1 0-4 0 2 2 0 0 0 4 0ZM16 24a2 2 0 1 0-4 0 2 2 0 0 0 4 0ZM16 13a2 2 0 1 0-4 0 2 2 0 0 0 4 0ZM16 2a2 2 0 1 0-4 0 2 2 0 0 0 4 0ZM28 35a2 2 0 1 0-4 0 2 2 0 0 0 4 0ZM28 24a2 2 0 1 0-4 0 2 2 0 0 0 4 0ZM28 13a2 2 0 1 0-4 0 2 2 0 0 0 4 0ZM28 2a2 2 0 1 0-4 0 2 2 0 0 0 4 0ZM40 46a2 2 0 1 0-4 0 2 2 0 0 0 4 0ZM40 35a2 2 0 1 0-4 0 2 2 0 0 0 4 0ZM40 24a2 2 0 1 0-4 0 2 2 0 0 0 4 0ZM40 13a2 2 0 1 0-4 0 2 2 0 0 0 4 0ZM40 2a2 2 0 1 0-4 0 2 2 0 0 0 4 0ZM52 46a2 2 0 1 0-4 0 2 2 0 0 0 4 0ZM52 35a2 2 0 1 0-4 0 2 2 0 0 0 4 0ZM52 24a2 2 0 1 0-4 0 2 2 0 0 0 4 0ZM52 13a2 2 0 1 0-4 0 2 2 0 0 0 4 0ZM52 2a2 2 0 1 0-4 0 2 2 0 0 0 4 0Z" fill="gray" fill-opacity=".3"/></svg>