<svg width="32" height="31" fill="none" xmlns="http://www.w3.org/2000/svg"><path d="M16 10.475c-2.947 0-5.333 2.204-5.333 4.924 0 2.721 2.386 4.925 5.333 4.925s5.334-2.204 5.334-4.925c0-2.72-2.387-4.924-5.334-4.924Zm11.92 3.693c-.302-2.496-1.514-4.824-3.438-6.6-1.924-1.777-4.445-2.896-7.148-3.175V3.088c0-.677-.6-1.231-1.334-1.231-.733 0-1.333.554-1.333 1.231v1.305c-2.704.279-5.225 1.398-7.149 3.175-1.923 1.776-3.136 4.104-3.438 6.6H2.667c-.733 0-1.333.554-1.333 1.231s.6 1.231 1.333 1.231H4.08c.302 2.497 1.515 4.825 3.438 6.6 1.924 1.777 4.445 2.897 7.149 3.176v1.305c0 .677.6 1.23 1.333 1.23s1.334-.553 1.334-1.23v-1.305c2.703-.28 5.224-1.399 7.148-3.175 1.924-1.776 3.136-4.104 3.438-6.6h1.413c.734 0 1.334-.555 1.334-1.232 0-.677-.6-1.23-1.334-1.23H27.92ZM16 24.018c-5.16 0-9.333-3.854-9.333-8.619 0-4.764 4.173-8.618 9.333-8.618s9.334 3.854 9.334 8.618c0 4.765-4.174 8.618-9.334 8.618Z" fill="url(#a)"/><defs><linearGradient id="a" x1="16" y1="1.857" x2="16" y2="28.942" gradientUnits="userSpaceOnUse"><stop stop-color="#fff"/><stop offset="0" stop-color="#FFBF00"/><stop offset="1" stop-color="#F2A60C"/></linearGradient></defs></svg>