<svg width="32" height="31" fill="none" xmlns="http://www.w3.org/2000/svg"><path d="M24 10.475h-1.333V8.012c0-3.397-2.987-6.155-6.667-6.155-3.68 0-6.666 2.758-6.666 6.155v2.463H8c-1.466 0-2.667 1.108-2.667 2.462v12.311c0 1.355 1.2 2.463 2.667 2.463h16c1.467 0 2.667-1.108 2.667-2.463V12.937c0-1.354-1.2-2.462-2.667-2.462Zm-8 11.08c-1.466 0-2.666-1.108-2.666-2.462 0-1.355 1.2-2.463 2.666-2.463 1.467 0 2.667 1.108 2.667 2.463 0 1.354-1.2 2.462-2.667 2.462Zm-4-11.08V8.012c0-2.043 1.787-3.693 4-3.693s4 1.65 4 3.693v2.463h-8Z" fill="url(#a)"/><defs><linearGradient id="a" x1="16" y1="1.857" x2="16" y2="27.711" gradientUnits="userSpaceOnUse"><stop stop-color="#fff"/><stop offset="0" stop-color="#FFBF00"/><stop offset="1" stop-color="#F2A60C"/></linearGradient></defs></svg>