<svg width="32" height="31" fill="none" xmlns="http://www.w3.org/2000/svg"><path d="M25.947 12.937a1.152 1.152 0 0 0-.093 1.231c.33.713.563 1.461.693 2.228a9.178 9.178 0 0 1-.92 5.824 1.28 1.28 0 0 1-.495.479c-.21.115-.448.175-.692.173H7.573c-.244 0-.485-.061-.694-.178a1.277 1.277 0 0 1-.492-.486 9.203 9.203 0 0 1-1.064-5.158 9.396 9.396 0 0 1 1.957-4.93c1.124-1.45 2.652-2.59 4.423-3.3 1.77-.71 3.716-.964 5.63-.734.969.105 1.916.338 2.814.69a1.43 1.43 0 0 0 1.333-.086c.203-.124.365-.295.47-.497a1.15 1.15 0 0 0-.133-1.265c-.144-.18-.34-.32-.564-.405a14.362 14.362 0 0 0-8.168-.699c-2.735.566-5.207 1.913-7.066 3.85-1.858 1.936-3.009 4.365-3.287 6.94-.28 2.575.328 5.165 1.735 7.403.232.372.567.682.969.898.402.216.859.33 1.324.333h18.467a2.84 2.84 0 0 0 1.34-.327c.407-.216.745-.528.98-.904a11.635 11.635 0 0 0 1.759-5.393c.127-1.899-.224-3.799-1.026-5.551-.102-.2-.26-.371-.457-.495a1.428 1.428 0 0 0-1.356-.079 1.3 1.3 0 0 0-.52.438Z" fill="url(#a)"/><path d="M14.12 16.126a2.372 2.372 0 0 0-.782 1.742c0 .323.07.644.204.943.134.298.33.57.578.799.248.229.542.41.866.534.323.124.67.187 1.02.187.708 0 1.387-.26 1.887-.721L25.44 9.157l-11.32 6.969Z" fill="url(#b)"/><defs><linearGradient id="a" x1="15.998" y1="5.526" x2="15.998" y2="25.248" gradientUnits="userSpaceOnUse"><stop stop-color="#fff"/><stop offset="0" stop-color="#FFBF00"/><stop offset="1" stop-color="#F2A60C"/></linearGradient><linearGradient id="b" x1="19.389" y1="9.157" x2="19.389" y2="20.331" gradientUnits="userSpaceOnUse"><stop stop-color="#fff"/><stop offset="0" stop-color="#FFBF00"/><stop offset="1" stop-color="#F2A60C"/></linearGradient></defs></svg>